<svg xmlns="http://www.w3.org/2000/svg" viewBox="0 0 1743.28 731.54"><defs><style>.cls-1{fill:#fff;}</style></defs><g id="Layer_2" data-name="Layer 2"><g id="Your_design" data-name="Your design"><path class="cls-1" d="M657.7,377.05a79.58,79.58,0,0,1-31.17-29.57q-11.34-18.92-11.34-42.75T626.53,262a79.55,79.55,0,0,1,31.17-29.56q19.81-10.66,44.58-10.66,20.85,0,37.71,7.33a75.68,75.68,0,0,1,28.3,21.09l-23.83,22q-16.28-18.79-40.34-18.8a53.6,53.6,0,0,0-26.59,6.53,46.4,46.4,0,0,0-18.22,18.22,57.32,57.32,0,0,0,0,53.18,46.34,46.34,0,0,0,18.22,18.22,53.49,53.49,0,0,0,26.59,6.53q24.06,0,40.34-19l23.83,22a74.2,74.2,0,0,1-28.42,21.32q-17,7.33-37.82,7.33Q677.53,387.7,657.7,377.05Z"/><path class="cls-1" d="M868.68,328.11V385H831.55v-57.3L769.44,224.51h39.42l42.86,71.28,42.87-71.28H931Z"/><path class="cls-1" d="M1084.36,316.08q7.8,10.2,7.79,25.1,0,21.07-16.38,32.43T1028,385H945V224.51h78.38q29.36,0,45,11.23t15.7,30.48a38.57,38.57,0,0,1-21.31,35.31Q1076.58,305.88,1084.36,316.08Zm-102.45-63.6v37.81h36.9q13.76,0,20.86-4.81t7.1-14.21q0-9.4-7.1-14.1t-20.86-4.69Zm65.43,99.69q7.46-4.8,7.46-14.89,0-19.95-29.57-19.94H981.91V357h43.32Q1039.9,357,1047.34,352.17Z"/><path class="cls-1" d="M1244.58,355.16V385H1120.35V224.51H1241.6v29.8h-84.35v34.84h74.5V318h-74.5v37.13Z"/><path class="cls-1" d="M1376.37,385l-30.94-44.69h-34.15V385h-37.13V224.51h69.45q21.32,0,37,7.11t24.18,20.17q8.48,13.07,8.48,30.94t-8.59,30.83q-8.6,12.94-24.41,19.83l36,51.56ZM1367,262q-8.73-7.22-25.44-7.22h-30.26v55.93h30.26q16.71,0,25.44-7.34t8.7-20.62Q1375.68,269.22,1367,262Z"/><path class="cls-1" d="M732.59,510.74q7.17,8.49,7.17,21.86,0,17.21-12.71,26.46t-37.53,9.26H628V434.62h57.69q22.34,0,34.66,9T732.69,469q0,11.08-5.44,18.82a32.71,32.71,0,0,1-15,11.55Q725.43,502.23,732.59,510.74Zm-90.44-64.47v48.52h42.6q16.23,0,25-6.21t8.78-18.05q0-11.83-8.78-18t-25-6.21Zm74.3,104.29q9.16-6.1,9.17-19.1,0-25-36.29-25H642.15v50.23h47.18Q707.28,556.67,716.45,550.56Z"/><path class="cls-1" d="M815,522.1v46.22H801.07V522.1l-53.48-87.48h15.09l45.84,75.06,45.84-75.06h14.13Z"/><path class="cls-1" d="M966.47,446.84h-47V434.62h108.1v12.22h-47V568.32H966.47Z"/><path class="cls-1" d="M1161.87,434.62v133.7h-13.94V506.63h-83.67v61.69h-14.13V434.62h14.13v59.6h83.67v-59.6Z"/><path class="cls-1" d="M1300,556.1v12.22h-94.55V434.62h91.69v12.22h-77.55V494.4h69.14v12h-69.14V556.1Z"/><path class="cls-1" d="M1391.54,564.69q-13.65-4.77-21.1-12.6L1376,541.2q7.26,7.26,19.29,11.75a70.54,70.54,0,0,0,24.83,4.49q18,0,26.93-6.6t9-17.09q0-8-4.87-12.8a33,33,0,0,0-11.94-7.35,193.38,193.38,0,0,0-19.67-5.64,205,205,0,0,1-24.07-7.35,39.45,39.45,0,0,1-15.38-10.79q-6.39-7.26-6.39-19.67a33.41,33.41,0,0,1,5.34-18.44q5.35-8.29,16.43-13.27t27.51-5a81,81,0,0,1,22.44,3.15,64.42,64.42,0,0,1,19,8.68l-4.77,11.28a65.89,65.89,0,0,0-18-8.32,67.2,67.2,0,0,0-18.71-2.76q-17.58,0-26.46,6.78t-8.88,17.47q0,8,4.87,12.9a32,32,0,0,0,12.22,7.45q7.35,2.58,19.78,5.63a200.27,200.27,0,0,1,23.77,7.16,39.12,39.12,0,0,1,15.38,10.7q6.3,7.17,6.3,19.39a32.9,32.9,0,0,1-5.44,18.43q-5.44,8.31-16.72,13.18t-27.69,4.87A86,86,0,0,1,1391.54,564.69Z"/><path class="cls-1" d="M1595.25,556.1v12.22H1500.7V434.62h91.69v12.22h-77.55V494.4H1584v12h-69.14V556.1Z"/><path class="cls-1" d="M1712.33,532.6h-74.49l-16,35.72h-14.71l61.12-133.7h13.94l61.13,133.7h-14.9Zm-5.15-11.46-32.09-71.82L1643,521.14Z"/><path class="cls-1" d="M296.57,34.17V68.85L237.75,51.22,178.94,68.85V34.17C178.94,15.28,205.21,0,237.75,0S296.57,15.28,296.57,34.17Z"/><polygon class="cls-1" points="390.81 244.26 244.32 185.07 244.25 114.59 293.47 129.42 295.98 130.16 369.41 152.23 390.81 244.26"/><polygon class="cls-1" points="229.49 114.59 229.41 185.07 82.92 244.26 104.32 152.23 178.34 129.94 180.93 129.2 229.49 114.59"/><path class="cls-1" d="M228.34,724.82l8.85-3.62v10.34C234.24,729.32,231.29,727.11,228.34,724.82Z"/><polygon class="cls-1" points="237.19 200.25 237.19 235.23 6.35 328.44 0 296.05 237.19 200.25"/><path class="cls-1" d="M237.19,247.12v40.81L16.46,377c-2.36-9.66-4.43-19.41-6.35-29.22l-1.62-8.34Z"/><path class="cls-1" d="M237.19,299.81v40.74L29.37,424.46q-5.64-18-10.26-36.61Z"/><path class="cls-1" d="M237.19,352.43v40.81L45.46,470.65Q38.59,453.16,32.69,435Z"/><path class="cls-1" d="M49.45,480.91l187.74-75.79v40.81L64.65,515.6Q56.57,498.67,49.45,480.91Z"/><path class="cls-1" d="M237.19,457.81v40.81l-150,60.52C81,548.22,75.05,537,69.45,525.56Z"/><path class="cls-1" d="M237.19,510.51v40.81l-123.76,50c-7.16-10.55-14-21.33-20.66-32.47Z"/><path class="cls-1" d="M237.19,563.2v40.74l-93.58,37.78q-12.39-15-23.69-31.22Z"/><path class="cls-1" d="M151.07,650.65l86.12-34.83v40.81L178.3,680.39Q164.13,666.11,151.07,650.65Z"/><path class="cls-1" d="M237.19,668.51v40.81l-18.82,7.53c-10.85-8.78-21.4-18.15-31.58-28Z"/><path class="cls-1" d="M426.66,476.51c-1,2.48-2,5-3,7.38H346.06a3.69,3.69,0,1,1,0-7.38Z"/><polygon class="cls-1" points="359.36 249.59 339.12 249.59 325.36 235.84 359.36 249.59"/><path class="cls-1" d="M279.08,226.48A19.48,19.48,0,0,0,260,242.21h-22.8v7.39H260a19.44,19.44,0,1,0,19.1-23.12Zm0,31.52a12.07,12.07,0,1,1,12-12.1A12.09,12.09,0,0,1,279.08,258Z"/><path class="cls-1" d="M475,358a3.69,3.69,0,0,1-3.69,3.69H400.37l-55.84-55.9H237.18v-7.38H347.59l55.83,55.9h67.87A3.69,3.69,0,0,1,475,358Z"/><path class="cls-1" d="M434.55,417.36H237.18v7.39H434.55a19.72,19.72,0,0,0,6.75,11.33c.9-2.68,1.79-5.35,2.55-8a12.11,12.11,0,0,1-2.23-7,11.83,11.83,0,0,1,7.77-11.2c.76-2.68,1.53-5.35,2.23-8.09A19.48,19.48,0,0,0,434.55,417.36Z"/><path class="cls-1" d="M469.39,298.45H406a3.69,3.69,0,0,0,0,7.38h63.36a3.69,3.69,0,0,0,0-7.38Z"/><path class="cls-1" d="M349.75,361.59a3.69,3.69,0,0,1-3.69,3.69H237.18v-7.39H346.06A3.7,3.7,0,0,1,349.75,361.59Z"/><path class="cls-1" d="M401.38,532.73c-1.27,2.48-2.54,4.9-3.82,7.38H339.12L282.9,483.89H237.18v-7.38H286l56.22,56.22Z"/><path class="cls-1" d="M279.08,517A19.47,19.47,0,0,0,260,532.73h-22.8v7.38H260A19.44,19.44,0,1,0,279.08,517Zm0,31.52a12.07,12.07,0,1,1,12-12.1A12.1,12.1,0,0,1,279.08,548.52Z"/><path class="cls-1" d="M360.51,601.87c-1.4,2.1-2.86,4.14-4.27,6.18l-11.71-11.72H237.18V589H347.59Z"/><path class="cls-1" d="M266.6,707.94c-2.86,2.48-5.73,4.9-8.6,7.32H237.18v-7.32Z"/><path class="cls-1" d="M325.24,648.41c-2.1,2.48-4.2,5-6.37,7.39H237.18v-7.39Z"/><path class="cls-1" d="M233.3,417.36h3.88v7.39H233.3a3.7,3.7,0,0,1,0-7.39Z"/></g></g></svg>